<svg width="378" height="117" viewBox="0 0 378 117" fill="none" xmlns="http://www.w3.org/2000/svg">
<path d="M43.9492 2.07201L23.1492 32.152L20.4612 47H9.51724L12.2052 32.152L1.90125 2.07201H14.3172L19.6932 20.824L31.6612 2.07201H43.9492Z" stroke="white" stroke-width="1.5"/>
<path d="M61.7987 47.448C58.0014 47.448 54.6521 46.6587 51.7507 45.08C48.8921 43.5013 46.6734 41.2827 45.0947 38.424C43.5161 35.5653 42.7267 32.28 42.7267 28.568C42.7267 23.32 43.8574 18.648 46.1187 14.552C48.3801 10.4133 51.5161 7.19201 55.5267 4.888C59.5801 2.58401 64.1667 1.43201 69.2867 1.43201C73.1267 1.43201 76.4974 2.22134 79.3987 3.80001C82.3001 5.336 84.5401 7.53334 86.1187 10.392C87.6974 13.208 88.4867 16.4507 88.4867 20.12C88.4867 25.368 87.3561 30.0827 85.0947 34.264C82.8334 38.4027 79.6761 41.6453 75.6227 43.992C71.5694 46.296 66.9614 47.448 61.7987 47.448ZM63.4627 37.336C66.2787 37.336 68.7534 36.6107 70.8867 35.16C73.0201 33.7093 74.6627 31.768 75.8147 29.336C77.0094 26.8613 77.6067 24.1947 77.6067 21.336C77.6067 18.264 76.7534 15.8533 75.0467 14.104C73.3401 12.3547 70.9507 11.48 67.8787 11.48C65.0627 11.48 62.5667 12.2053 60.3907 13.656C58.2574 15.1067 56.5934 17.048 55.3987 19.48C54.2467 21.8693 53.6707 24.5147 53.6707 27.416C53.6707 30.488 54.5241 32.92 56.2307 34.712C57.9374 36.4613 60.3481 37.336 63.4627 37.336Z" stroke="white" stroke-width="1.5"/>
<path d="M109.423 2.07201L104.687 28.888C104.517 29.9973 104.431 30.7653 104.431 31.192C104.431 33.1547 104.986 34.6693 106.095 35.736C107.205 36.76 108.847 37.272 111.023 37.272C113.583 37.272 115.674 36.5467 117.295 35.096C118.917 33.6453 119.962 31.576 120.431 28.888L125.167 2.07201H136.111L131.375 28.888C130.65 32.9413 129.199 36.376 127.023 39.192C124.89 41.9653 122.266 44.0347 119.151 45.4C116.079 46.7653 112.73 47.448 109.103 47.448C104.41 47.448 100.613 46.232 97.7112 43.8C94.8526 41.368 93.4232 37.848 93.4232 33.24C93.4232 31.8747 93.5512 30.424 93.8072 28.888L98.4792 2.07201H109.423Z" stroke="white" stroke-width="1.5"/>
<path d="M162.164 2.07201C166.815 2.07201 170.356 3.13867 172.788 5.27201C175.22 7.36267 176.436 10.0933 176.436 13.464C176.436 14.4453 176.351 15.3627 176.18 16.216C175.668 19.2027 174.367 21.8693 172.276 24.216C170.186 26.5627 167.391 28.2267 163.892 29.208L171.124 47H158.772L152.436 30.04H149.812L146.804 47H135.86L143.796 2.07201H162.164ZM164.98 16.664C165.066 15.9813 165.108 15.5333 165.108 15.32C165.108 13.9547 164.66 12.9093 163.764 12.184C162.911 11.416 161.631 11.032 159.924 11.032H153.14L151.156 22.296H157.94C159.946 22.296 161.524 21.8053 162.676 20.824C163.871 19.8427 164.639 18.456 164.98 16.664Z" stroke="white" stroke-width="1.5"/>
<path d="M218.727 2.07201C223.377 2.07201 226.919 3.13867 229.351 5.27201C231.783 7.36267 232.999 10.0933 232.999 13.464C232.999 14.4453 232.913 15.3627 232.743 16.216C232.231 19.2027 230.929 21.8693 228.839 24.216C226.748 26.5627 223.953 28.2267 220.455 29.208L227.687 47H215.335L208.999 30.04H206.375L203.367 47H192.423L200.359 2.07201H218.727ZM221.543 16.664C221.628 15.9813 221.671 15.5333 221.671 15.32C221.671 13.9547 221.223 12.9093 220.327 12.184C219.473 11.416 218.193 11.032 216.487 11.032H209.703L207.719 22.296H214.503C216.508 22.296 218.087 21.8053 219.239 20.824C220.433 19.8427 221.201 18.456 221.543 16.664Z" stroke="white" stroke-width="1.5"/>
<path d="M263.549 39.064H246.781L242.685 47H231.229L255.421 2.07201H268.093L276.413 47H264.829L263.549 39.064ZM262.269 30.744L259.645 14.104L251.069 30.744H262.269Z" stroke="white" stroke-width="1.5"/>
<path d="M321.552 47H310.608L297.232 19.288L292.304 47H281.36L289.296 2.07201H300.24L313.616 29.912L318.544 2.07201H329.488L321.552 47Z" stroke="white" stroke-width="1.5"/>
<path d="M354.893 24.088L368.909 47H355.533L343.949 27.16L340.429 47H329.485L337.421 2.07201H348.365L344.909 21.784L363.405 2.07201H376.205L354.893 24.088Z" stroke="white" stroke-width="1.5"/>
<path d="M85.5017 81.72C85.0324 84.3653 83.9444 86.5627 82.2377 88.312C80.5311 90.0613 78.4831 91.2773 76.0937 91.96C78.2271 92.4293 79.9124 93.4747 81.1497 95.096C82.3871 96.7173 83.0057 98.616 83.0057 100.792C83.0057 101.475 82.9417 102.136 82.8137 102.776C82.1737 106.531 80.3391 109.517 77.3097 111.736C74.2804 113.912 70.4191 115 65.7257 115H44.7977L52.7337 70.072H72.9577C77.0111 70.072 80.1471 70.904 82.3657 72.568C84.5844 74.232 85.6937 76.536 85.6937 79.48C85.6937 80.2053 85.6297 80.952 85.5017 81.72ZM67.5817 88.312C69.4164 88.312 70.8884 87.9067 71.9977 87.096C73.1071 86.2853 73.7897 85.112 74.0457 83.576C74.0884 83.32 74.1097 82.9787 74.1097 82.552C74.1097 81.3147 73.7044 80.376 72.8937 79.736C72.0831 79.0533 70.8884 78.712 69.3097 78.712H62.1417L60.4777 88.312H67.5817ZM71.9337 101.304C72.0191 100.792 72.0617 100.408 72.0617 100.152C72.0617 98.9147 71.6137 97.9547 70.7177 97.272C69.8217 96.5467 68.5844 96.184 67.0057 96.184H59.0697L57.2777 106.296H65.3417C67.2191 106.296 68.7124 105.869 69.8217 105.016C70.9311 104.163 71.6351 102.925 71.9337 101.304Z" stroke="white" stroke-width="1.5"/>
<path d="M108.361 115.448C104.564 115.448 101.215 114.659 98.3132 113.08C95.4546 111.501 93.2359 109.283 91.6572 106.424C90.0786 103.565 89.2892 100.28 89.2892 96.568C89.2892 91.32 90.4199 86.648 92.6812 82.552C94.9426 78.4133 98.0786 75.192 102.089 72.888C106.143 70.584 110.729 69.432 115.849 69.432C119.689 69.432 123.06 70.2213 125.961 71.8C128.863 73.336 131.103 75.5333 132.681 78.392C134.26 81.208 135.049 84.4507 135.049 88.12C135.049 93.368 133.919 98.0827 131.657 102.264C129.396 106.403 126.239 109.645 122.185 111.992C118.132 114.296 113.524 115.448 108.361 115.448ZM110.025 105.336C112.841 105.336 115.316 104.611 117.449 103.16C119.583 101.709 121.225 99.768 122.377 97.336C123.572 94.8613 124.169 92.1947 124.169 89.336C124.169 86.264 123.316 83.8533 121.609 82.104C119.903 80.3547 117.513 79.48 114.441 79.48C111.625 79.48 109.129 80.2053 106.953 81.656C104.82 83.1067 103.156 85.048 101.961 87.48C100.809 89.8693 100.233 92.5147 100.233 95.416C100.233 98.488 101.087 100.92 102.793 102.712C104.5 104.461 106.911 105.336 110.025 105.336Z" stroke="white" stroke-width="1.5"/>
<path d="M158.674 115.448C154.876 115.448 151.527 114.659 148.626 113.08C145.767 111.501 143.548 109.283 141.97 106.424C140.391 103.565 139.602 100.28 139.602 96.568C139.602 91.32 140.732 86.648 142.994 82.552C145.255 78.4133 148.391 75.192 152.402 72.888C156.455 70.584 161.042 69.432 166.162 69.432C170.002 69.432 173.372 70.2213 176.274 71.8C179.175 73.336 181.415 75.5333 182.994 78.392C184.572 81.208 185.362 84.4507 185.362 88.12C185.362 93.368 184.231 98.0827 181.97 102.264C179.708 106.403 176.551 109.645 172.498 111.992C168.444 114.296 163.836 115.448 158.674 115.448ZM160.338 105.336C163.154 105.336 165.628 104.611 167.762 103.16C169.895 101.709 171.538 99.768 172.69 97.336C173.884 94.8613 174.482 92.1947 174.482 89.336C174.482 86.264 173.628 83.8533 171.922 82.104C170.215 80.3547 167.826 79.48 164.754 79.48C161.938 79.48 159.442 80.2053 157.266 81.656C155.132 83.1067 153.468 85.048 152.274 87.48C151.122 89.8693 150.546 92.5147 150.546 95.416C150.546 98.488 151.399 100.92 153.106 102.712C154.812 104.461 157.223 105.336 160.338 105.336Z" stroke="white" stroke-width="1.5"/>
<path d="M205.466 115.448C200.602 115.448 196.634 114.403 193.562 112.312C190.533 110.179 189.018 107.171 189.018 103.288C189.018 102.904 189.061 102.328 189.146 101.56H200.538C200.41 103.181 200.794 104.461 201.69 105.4C202.586 106.339 203.952 106.808 205.786 106.808C207.45 106.808 208.752 106.445 209.69 105.72C210.672 104.995 211.162 103.971 211.162 102.648C211.162 101.283 210.544 100.173 209.306 99.32C208.112 98.4667 206.234 97.5067 203.674 96.44C201.2 95.416 199.173 94.456 197.594 93.56C196.058 92.6213 194.714 91.3627 193.562 89.784C192.41 88.2053 191.834 86.2213 191.834 83.832C191.792 80.888 192.517 78.328 194.01 76.152C195.504 73.976 197.573 72.312 200.218 71.16C202.864 70.008 205.893 69.432 209.306 69.432C212.378 69.432 215.109 69.9227 217.498 70.904C219.888 71.8427 221.744 73.2293 223.066 75.064C224.389 76.856 225.05 78.9893 225.05 81.464C225.05 82.104 225.029 82.5733 224.986 82.872H213.338C213.381 82.7013 213.402 82.4453 213.402 82.104C213.402 80.9093 212.976 79.9493 212.122 79.224C211.312 78.456 210.181 78.072 208.73 78.072C207.194 78.072 205.936 78.456 204.954 79.224C204.016 79.9493 203.546 80.952 203.546 82.232C203.546 83.512 204.144 84.6 205.338 85.496C206.533 86.3493 208.389 87.352 210.906 88.504C213.424 89.656 215.472 90.7227 217.05 91.704C218.672 92.6853 220.058 94.008 221.21 95.672C222.362 97.2933 222.938 99.2987 222.938 101.688C222.938 104.333 222.234 106.701 220.826 108.792C219.418 110.883 217.392 112.525 214.746 113.72C212.101 114.872 209.008 115.448 205.466 115.448Z" stroke="white" stroke-width="1.5"/>
<path d="M267.679 70.072L266.207 78.712H254.239L247.839 115H236.895L243.295 78.712H231.391L232.927 70.072H267.679Z" stroke="white" stroke-width="1.5"/>
<path d="M282.579 78.712L280.979 88.056H295.635L294.163 96.312H279.507L277.715 106.36H294.291L292.755 115H265.235L273.171 70.072H300.691L299.155 78.712H282.579Z" stroke="white" stroke-width="1.5"/>
<path d="M326.164 70.072C330.815 70.072 334.356 71.1387 336.788 73.272C339.22 75.3627 340.436 78.0933 340.436 81.464C340.436 82.4453 340.351 83.3627 340.18 84.216C339.668 87.2027 338.367 89.8693 336.276 92.216C334.186 94.5627 331.391 96.2267 327.892 97.208L335.124 115H322.772L316.436 98.04H313.812L310.804 115H299.86L307.796 70.072H326.164ZM328.98 84.664C329.066 83.9813 329.108 83.5333 329.108 83.32C329.108 81.9547 328.66 80.9093 327.764 80.184C326.911 79.416 325.631 79.032 323.924 79.032H317.14L315.156 90.296H321.94C323.946 90.296 325.524 89.8053 326.676 88.824C327.871 87.8427 328.639 86.456 328.98 84.664Z" stroke="white" stroke-width="1.5"/>
</svg>
