<svg width="856" height="60" viewBox="0 0 856 60" fill="none" xmlns="http://www.w3.org/2000/svg">
<path d="M54.3037 1.84L28.3037 39.44L24.9437 58H11.2637L14.6237 39.44L1.74374 1.84H17.2637L23.9837 25.28L38.9437 1.84H54.3037Z" stroke="#F5F5F5" stroke-width="1.5"/>
<path d="M76.6156 58.56C71.869 58.56 67.6823 57.5733 64.0556 55.6C60.4823 53.6267 57.709 50.8533 55.7356 47.28C53.7623 43.7067 52.7756 39.6 52.7756 34.96C52.7756 28.4 54.189 22.56 57.0156 17.44C59.8423 12.2667 63.7623 8.24 68.7756 5.36C73.8423 2.48 79.5756 1.04001 85.9756 1.04001C90.7756 1.04001 94.989 2.02667 98.6156 4.00001C102.242 5.92001 105.042 8.66667 107.016 12.24C108.989 15.76 109.976 19.8133 109.976 24.4C109.976 30.96 108.562 36.8533 105.736 42.08C102.909 47.2533 98.9623 51.3067 93.8956 54.24C88.829 57.12 83.069 58.56 76.6156 58.56ZM78.6956 45.92C82.2156 45.92 85.309 45.0133 87.9756 43.2C90.6423 41.3867 92.6956 38.96 94.1356 35.92C95.6289 32.8267 96.3756 29.4933 96.3756 25.92C96.3756 22.08 95.309 19.0667 93.1756 16.88C91.0423 14.6933 88.0556 13.6 84.2156 13.6C80.6956 13.6 77.5756 14.5067 74.8556 16.32C72.189 18.1333 70.1089 20.56 68.6156 23.6C67.1756 26.5867 66.4556 29.8933 66.4556 33.52C66.4556 37.36 67.5223 40.4 69.6556 42.64C71.7889 44.8267 74.8023 45.92 78.6956 45.92Z" stroke="#F5F5F5" stroke-width="1.5"/>
<path d="M136.146 1.84L130.226 35.36C130.013 36.7467 129.906 37.7067 129.906 38.24C129.906 40.6933 130.6 42.5867 131.986 43.92C133.373 45.2 135.426 45.84 138.146 45.84C141.346 45.84 143.96 44.9333 145.986 43.12C148.013 41.3067 149.32 38.72 149.906 35.36L155.826 1.84H169.506L163.586 35.36C162.68 40.4267 160.866 44.72 158.146 48.24C155.48 51.7067 152.2 54.2933 148.306 56C144.466 57.7067 140.28 58.56 135.746 58.56C129.88 58.56 125.133 57.04 121.506 54C117.933 50.96 116.146 46.56 116.146 40.8C116.146 39.0933 116.306 37.28 116.626 35.36L122.466 1.84H136.146Z" stroke="#F5F5F5" stroke-width="1.5"/>
<path d="M202.072 1.84C207.886 1.84 212.313 3.17334 215.353 5.84C218.393 8.45334 219.913 11.8667 219.913 16.08C219.913 17.3067 219.806 18.4533 219.592 19.52C218.952 23.2533 217.326 26.5867 214.712 29.52C212.099 32.4533 208.606 34.5333 204.232 35.76L213.272 58H197.832L189.913 36.8H186.633L182.872 58H169.193L179.112 1.84H202.072ZM205.592 20.08C205.699 19.2267 205.753 18.6667 205.753 18.4C205.753 16.6933 205.193 15.3867 204.073 14.48C203.006 13.52 201.406 13.04 199.272 13.04H190.792L188.312 27.12H196.792C199.299 27.12 201.272 26.5067 202.712 25.28C204.206 24.0533 205.166 22.32 205.592 20.08Z" stroke="#F5F5F5" stroke-width="1.5"/>
<path d="M272.776 1.84C278.589 1.84 283.016 3.17334 286.056 5.84C289.096 8.45334 290.616 11.8667 290.616 16.08C290.616 17.3067 290.509 18.4533 290.296 19.52C289.656 23.2533 288.029 26.5867 285.416 29.52C282.802 32.4533 279.309 34.5333 274.936 35.76L283.976 58H268.536L260.616 36.8H257.336L253.576 58H239.896L249.816 1.84H272.776ZM276.296 20.08C276.402 19.2267 276.456 18.6667 276.456 18.4C276.456 16.6933 275.896 15.3867 274.776 14.48C273.709 13.52 272.109 13.04 269.976 13.04H261.496L259.016 27.12H267.496C270.002 27.12 271.976 26.5067 273.416 25.28C274.909 24.0533 275.869 22.32 276.296 20.08Z" stroke="#F5F5F5" stroke-width="1.5"/>
<path d="M328.803 48.08H307.843L302.723 58H288.403L318.643 1.84H334.483L344.883 58H330.403L328.803 48.08ZM327.203 37.68L323.923 16.88L313.203 37.68H327.203Z" stroke="#F5F5F5" stroke-width="1.5"/>
<path d="M401.307 58H387.628L370.908 23.36L364.747 58H351.068L360.987 1.84H374.668L391.388 36.64L397.547 1.84H411.228L401.307 58Z" stroke="#F5F5F5" stroke-width="1.5"/>
<path d="M442.984 29.36L460.504 58H443.784L429.304 33.2L424.904 58H411.224L421.144 1.84H434.824L430.504 26.48L453.624 1.84H469.624L442.984 29.36Z" stroke="#F5F5F5" stroke-width="1.5"/>
<path d="M536.401 16.4C535.814 19.7067 534.454 22.4533 532.321 24.64C530.187 26.8267 527.627 28.3467 524.641 29.2C527.307 29.7867 529.414 31.0933 530.961 33.12C532.507 35.1467 533.281 37.52 533.281 40.24C533.281 41.0933 533.201 41.92 533.041 42.72C532.241 47.4133 529.947 51.1467 526.161 53.92C522.374 56.64 517.547 58 511.681 58H485.521L495.441 1.84H520.721C525.787 1.84 529.707 2.88001 532.481 4.96001C535.254 7.04001 536.641 9.92001 536.641 13.6C536.641 14.5067 536.561 15.44 536.401 16.4ZM514.001 24.64C516.294 24.64 518.134 24.1333 519.521 23.12C520.907 22.1067 521.761 20.64 522.081 18.72C522.134 18.4 522.161 17.9733 522.161 17.44C522.161 15.8933 521.654 14.72 520.641 13.92C519.627 13.0667 518.134 12.64 516.161 12.64H507.201L505.121 24.64H514.001ZM519.441 40.88C519.547 40.24 519.601 39.76 519.601 39.44C519.601 37.8933 519.041 36.6933 517.921 35.84C516.801 34.9333 515.254 34.48 513.281 34.48H503.361L501.121 47.12H511.201C513.547 47.12 515.414 46.5867 516.801 45.52C518.187 44.4533 519.067 42.9067 519.441 40.88Z" stroke="#F5F5F5" stroke-width="1.5"/>
<path d="M564.975 58.56C560.228 58.56 556.042 57.5733 552.415 55.6C548.842 53.6267 546.068 50.8533 544.095 47.28C542.122 43.7067 541.135 39.6 541.135 34.96C541.135 28.4 542.548 22.56 545.375 17.44C548.202 12.2667 552.122 8.24 557.135 5.36C562.202 2.48 567.935 1.04001 574.335 1.04001C579.135 1.04001 583.348 2.02667 586.975 4.00001C590.602 5.92001 593.402 8.66667 595.375 12.24C597.348 15.76 598.335 19.8133 598.335 24.4C598.335 30.96 596.922 36.8533 594.095 42.08C591.268 47.2533 587.322 51.3067 582.255 54.24C577.188 57.12 571.428 58.56 564.975 58.56ZM567.055 45.92C570.575 45.92 573.668 45.0133 576.335 43.2C579.002 41.3867 581.055 38.96 582.495 35.92C583.988 32.8267 584.735 29.4933 584.735 25.92C584.735 22.08 583.668 19.0667 581.535 16.88C579.402 14.6933 576.415 13.6 572.575 13.6C569.055 13.6 565.935 14.5067 563.215 16.32C560.548 18.1333 558.468 20.56 556.975 23.6C555.535 26.5867 554.815 29.8933 554.815 33.52C554.815 37.36 555.882 40.4 558.015 42.64C560.148 44.8267 563.162 45.92 567.055 45.92Z" stroke="#F5F5F5" stroke-width="1.5"/>
<path d="M627.866 58.56C623.119 58.56 618.932 57.5733 615.306 55.6C611.732 53.6267 608.959 50.8533 606.986 47.28C605.012 43.7067 604.026 39.6 604.026 34.96C604.026 28.4 605.439 22.56 608.266 17.44C611.092 12.2667 615.012 8.24 620.026 5.36C625.092 2.48 630.826 1.04001 637.226 1.04001C642.026 1.04001 646.239 2.02667 649.866 4.00001C653.492 5.92001 656.292 8.66667 658.266 12.24C660.239 15.76 661.226 19.8133 661.226 24.4C661.226 30.96 659.812 36.8533 656.986 42.08C654.159 47.2533 650.212 51.3067 645.146 54.24C640.079 57.12 634.319 58.56 627.866 58.56ZM629.946 45.92C633.466 45.92 636.559 45.0133 639.226 43.2C641.892 41.3867 643.946 38.96 645.386 35.92C646.879 32.8267 647.626 29.4933 647.626 25.92C647.626 22.08 646.559 19.0667 644.426 16.88C642.292 14.6933 639.306 13.6 635.466 13.6C631.946 13.6 628.826 14.5067 626.106 16.32C623.439 18.1333 621.359 20.56 619.866 23.6C618.426 26.5867 617.706 29.8933 617.706 33.52C617.706 37.36 618.772 40.4 620.906 42.64C623.039 44.8267 626.052 45.92 629.946 45.92Z" stroke="#F5F5F5" stroke-width="1.5"/>
<path d="M686.356 58.56C680.276 58.56 675.316 57.2533 671.476 54.64C667.69 51.9733 665.796 48.2133 665.796 43.36C665.796 42.88 665.85 42.16 665.956 41.2H680.196C680.036 43.2267 680.516 44.8267 681.636 46C682.756 47.1733 684.463 47.76 686.756 47.76C688.836 47.76 690.463 47.3067 691.636 46.4C692.863 45.4933 693.476 44.2133 693.476 42.56C693.476 40.8533 692.703 39.4667 691.156 38.4C689.663 37.3333 687.316 36.1333 684.116 34.8C681.023 33.52 678.49 32.32 676.516 31.2C674.596 30.0267 672.916 28.4533 671.476 26.48C670.036 24.5067 669.316 22.0267 669.316 19.04C669.263 15.36 670.17 12.16 672.036 9.44C673.903 6.72 676.49 4.64001 679.796 3.2C683.103 1.76001 686.89 1.04001 691.156 1.04001C694.996 1.04001 698.41 1.65334 701.396 2.88C704.383 4.05334 706.703 5.78667 708.356 8.08001C710.01 10.32 710.836 12.9867 710.836 16.08C710.836 16.88 710.81 17.4667 710.756 17.84H696.196C696.25 17.6267 696.276 17.3067 696.276 16.88C696.276 15.3867 695.743 14.1867 694.676 13.28C693.663 12.32 692.25 11.84 690.436 11.84C688.516 11.84 686.943 12.32 685.716 13.28C684.543 14.1867 683.956 15.44 683.956 17.04C683.956 18.64 684.703 20 686.196 21.12C687.69 22.1867 690.01 23.44 693.156 24.88C696.303 26.32 698.863 27.6533 700.836 28.88C702.863 30.1067 704.596 31.76 706.036 33.84C707.476 35.8667 708.196 38.3733 708.196 41.36C708.196 44.6667 707.316 47.6267 705.556 50.24C703.796 52.8533 701.263 54.9067 697.956 56.4C694.65 57.84 690.783 58.56 686.356 58.56Z" stroke="#F5F5F5" stroke-width="1.5"/>
<path d="M764.122 1.84L762.282 12.64H747.322L739.322 58H725.642L733.642 12.64H718.762L720.682 1.84H764.122Z" stroke="#F5F5F5" stroke-width="1.5"/>
<path d="M782.747 12.64L780.747 24.32H799.067L797.227 34.64H778.907L776.667 47.2H797.387L795.467 58H761.067L770.987 1.84H805.387L803.467 12.64H782.747Z" stroke="#F5F5F5" stroke-width="1.5"/>
<path d="M837.229 1.84C843.042 1.84 847.469 3.17334 850.509 5.84C853.549 8.45334 855.069 11.8667 855.069 16.08C855.069 17.3067 854.962 18.4533 854.749 19.52C854.109 23.2533 852.482 26.5867 849.869 29.52C847.255 32.4533 843.762 34.5333 839.389 35.76L848.429 58H832.989L825.069 36.8H821.789L818.029 58H804.349L814.269 1.84H837.229ZM840.749 20.08C840.855 19.2267 840.909 18.6667 840.909 18.4C840.909 16.6933 840.349 15.3867 839.229 14.48C838.162 13.52 836.562 13.04 834.429 13.04H825.949L823.469 27.12H831.949C834.455 27.12 836.429 26.5067 837.869 25.28C839.362 24.0533 840.322 22.32 840.749 20.08Z" stroke="#F5F5F5" stroke-width="1.5"/>
</svg>
